<svg width="52" height="52" viewBox="0 0 52 52" fill="none" xmlns="http://www.w3.org/2000/svg">
<g clip-path="url(#clip0_572_1477)">
<path d="M43.3332 4.3335H8.66658C6.28325 4.3335 4.33325 6.2835 4.33325 8.66683V43.3335C4.33325 45.7168 6.28325 47.6668 8.66658 47.6668H43.3332C45.7166 47.6668 47.6666 45.7168 47.6666 43.3335V8.66683C47.6666 6.2835 45.7166 4.3335 43.3332 4.3335ZM17.3333 43.3335H8.66658V34.6668H17.3333V43.3335ZM17.3333 30.3335H8.66658V21.6668H17.3333V30.3335ZM17.3333 17.3335H8.66658V8.66683H17.3333V17.3335ZM30.3333 43.3335H21.6666V34.6668H30.3333V43.3335ZM30.3333 30.3335H21.6666V21.6668H30.3333V30.3335ZM30.3333 17.3335H21.6666V8.66683H30.3333V17.3335ZM43.3332 43.3335H34.6666V34.6668H43.3332V43.3335ZM43.3332 30.3335H34.6666V21.6668H43.3332V30.3335ZM43.3332 17.3335H34.6666V8.66683H43.3332V17.3335Z" fill="black"/>
</g>
<defs>
<clipPath id="clip0_572_1477">
<rect width="52" height="52" fill="white"/>
</clipPath>
</defs>
</svg>
