<svg width="48" height="42" viewBox="0 0 48 42" fill="none" xmlns="http://www.w3.org/2000/svg">
<path d="M36.9997 34.5581C37.536 34.6024 38.0784 34.625 38.6261 34.625C40.8975 34.625 43.0782 34.2366 45.1054 33.5227C45.1191 33.3503 45.1261 33.176 45.1261 33C45.1261 29.4101 42.216 26.5 38.6261 26.5C37.2663 26.5 36.004 26.9176 34.9604 27.6315M36.9997 34.5581C36.9999 34.5804 36.9999 34.6027 36.9999 34.625C36.9999 35.1125 36.973 35.5937 36.9208 36.0672C33.1145 38.2513 28.703 39.5 23.9999 39.5C19.2968 39.5 14.8853 38.2513 11.079 36.0672C11.0267 35.5937 10.9999 35.1125 10.9999 34.625C10.9999 34.6028 10.9999 34.5806 11 34.5584M36.9997 34.5581C36.9869 32.0089 36.2403 29.6333 34.9604 27.6315M34.9604 27.6315C32.651 24.0196 28.6051 21.625 23.9999 21.625C19.3953 21.625 15.3498 24.019 13.0402 27.6302M13.0402 27.6302C11.997 26.9171 10.7355 26.5 9.37646 26.5C5.78661 26.5 2.87646 29.4101 2.87646 33C2.87646 33.176 2.88346 33.3503 2.89718 33.5227C4.92438 34.2366 7.10507 34.625 9.37646 34.625C9.92321 34.625 10.4647 34.6025 11 34.5584M13.0402 27.6302C11.7597 29.6323 11.0128 32.0085 11 34.5584M30.4999 8.625C30.4999 12.2149 27.5897 15.125 23.9999 15.125C20.41 15.125 17.4999 12.2149 17.4999 8.625C17.4999 5.03515 20.41 2.125 23.9999 2.125C27.5897 2.125 30.4999 5.03515 30.4999 8.625ZM43.4999 15.125C43.4999 17.8174 41.3173 20 38.6249 20C35.9325 20 33.7499 17.8174 33.7499 15.125C33.7499 12.4326 35.9325 10.25 38.6249 10.25C41.3173 10.25 43.4999 12.4326 43.4999 15.125ZM14.2499 15.125C14.2499 17.8174 12.0673 20 9.37488 20C6.68249 20 4.49988 17.8174 4.49988 15.125C4.49988 12.4326 6.68249 10.25 9.37488 10.25C12.0673 10.25 14.2499 12.4326 14.2499 15.125Z" stroke="black" stroke-width="4" stroke-linecap="round" stroke-linejoin="round"/>
</svg>
